<svg id="my-svg" width="100%" xmlns="http://www.w3.org/2000/svg" xmlns:xlink="http://www.w3.org/1999/xlink" class="erDiagram" style="max-width: 738.723px; background-color: transparent;" viewBox="0 0 738.72265625 1273.5" role="graphics-document document" aria-roledescription="er"><style>#my-svg{font-family:"trebuchet ms",verdana,arial,sans-serif;font-size:16px;fill:#333;}@keyframes edge-animation-frame{from{stroke-dashoffset:0;}}@keyframes dash{to{stroke-dashoffset:0;}}#my-svg .edge-animation-slow{stroke-dasharray:9,5!important;stroke-dashoffset:900;animation:dash 50s linear infinite;stroke-linecap:round;}#my-svg .edge-animation-fast{stroke-dasharray:9,5!important;stroke-dashoffset:900;animation:dash 20s linear infinite;stroke-linecap:round;}#my-svg .error-icon{fill:#552222;}#my-svg .error-text{fill:#552222;stroke:#552222;}#my-svg .edge-thickness-normal{stroke-width:1px;}#my-svg .edge-thickness-thick{stroke-width:3.5px;}#my-svg .edge-pattern-solid{stroke-dasharray:0;}#my-svg .edge-thickness-invisible{stroke-width:0;fill:none;}#my-svg .edge-pattern-dashed{stroke-dasharray:3;}#my-svg .edge-pattern-dotted{stroke-dasharray:2;}#my-svg .marker{fill:#333333;stroke:#333333;}#my-svg .marker.cross{stroke:#333333;}#my-svg svg{font-family:"trebuchet ms",verdana,arial,sans-serif;font-size:16px;}#my-svg p{margin:0;}#my-svg .entityBox{fill:#ECECFF;stroke:#9370DB;}#my-svg .relationshipLabelBox{fill:hsl(80, 100%, 96.2745098039%);opacity:0.7;background-color:hsl(80, 100%, 96.2745098039%);}#my-svg .relationshipLabelBox rect{opacity:0.5;}#my-svg .labelBkg{background-color:rgba(248.6666666666, 255, 235.9999999999, 0.5);}#my-svg .edgeLabel{background-color:rgba(232,232,232, 0.8);}#my-svg .edgeLabel .label rect{fill:rgba(232,232,232, 0.8);}#my-svg .edgeLabel .label text{fill:#333;}#my-svg .edgeLabel .label{fill:#9370DB;font-size:14px;}#my-svg .label{font-family:"trebuchet ms",verdana,arial,sans-serif;color:#333;}#my-svg .edge-pattern-dashed{stroke-dasharray:8,8;}#my-svg .node rect,#my-svg .node circle,#my-svg .node ellipse,#my-svg .node polygon{fill:#ECECFF;stroke:#9370DB;stroke-width:1px;}#my-svg .relationshipLine{stroke:#333333;stroke-width:1px;fill:none;}#my-svg .marker{fill:none!important;stroke:#333333!important;stroke-width:1;}#my-svg [data-look=neo].labelBkg{background-color:rgba(248.6666666666, 255, 235.9999999999, 0.5);}#my-svg .node .neo-node{stroke:#9370DB;}#my-svg [data-look="neo"].node rect,#my-svg [data-look="neo"].cluster rect,#my-svg [data-look="neo"].node polygon{stroke:#9370DB;filter:drop-shadow(1px 2px 2px rgba(185, 185, 185, 1));}#my-svg [data-look="neo"].node path{stroke:#9370DB;stroke-width:1px;}#my-svg [data-look="neo"].node .outer-path{filter:drop-shadow(1px 2px 2px rgba(185, 185, 185, 1));}#my-svg [data-look="neo"].node .neo-line path{stroke:#9370DB;filter:none;}#my-svg [data-look="neo"].node circle{stroke:#9370DB;filter:drop-shadow(1px 2px 2px rgba(185, 185, 185, 1));}#my-svg [data-look="neo"].node circle .state-start{fill:#000000;}#my-svg [data-look="neo"].icon-shape .icon{fill:#9370DB;filter:drop-shadow(1px 2px 2px rgba(185, 185, 185, 1));}#my-svg [data-look="neo"].icon-shape .icon-neo path{stroke:#9370DB;filter:drop-shadow(1px 2px 2px rgba(185, 185, 185, 1));}#my-svg :root{--mermaid-font-family:"trebuchet ms",verdana,arial,sans-serif;}</style><g><defs><marker id="my-svg_er-onlyOneStart" class="marker onlyOne er" refX="0" refY="9" markerWidth="18" markerHeight="18" orient="auto"><path d="M9,0 L9,18 M15,0 L15,18"/></marker></defs><defs><marker id="my-svg_er-onlyOneEnd" class="marker onlyOne er" refX="18" refY="9" markerWidth="18" markerHeight="18" orient="auto"><path d="M3,0 L3,18 M9,0 L9,18"/></marker></defs><defs><marker id="my-svg_er-zeroOrOneStart" class="marker zeroOrOne er" refX="0" refY="9" markerWidth="30" markerHeight="18" orient="auto"><circle fill="white" cx="21" cy="9" r="6"/><path d="M9,0 L9,18"/></marker></defs><defs><marker id="my-svg_er-zeroOrOneEnd" class="marker zeroOrOne er" refX="30" refY="9" markerWidth="30" markerHeight="18" orient="auto"><circle fill="white" cx="9" cy="9" r="6"/><path d="M21,0 L21,18"/></marker></defs><defs><marker id="my-svg_er-oneOrMoreStart" class="marker oneOrMore er" refX="18" refY="18" markerWidth="45" markerHeight="36" orient="auto"><path d="M0,18 Q 18,0 36,18 Q 18,36 0,18 M42,9 L42,27"/></marker></defs><defs><marker id="my-svg_er-oneOrMoreEnd" class="marker oneOrMore er" refX="27" refY="18" markerWidth="45" markerHeight="36" orient="auto"><path d="M3,9 L3,27 M9,18 Q27,0 45,18 Q27,36 9,18"/></marker></defs><defs><marker id="my-svg_er-zeroOrMoreStart" class="marker zeroOrMore er" refX="18" refY="18" markerWidth="57" markerHeight="36" orient="auto"><circle fill="white" cx="48" cy="18" r="6"/><path d="M0,18 Q18,0 36,18 Q18,36 0,18"/></marker></defs><defs><marker id="my-svg_er-zeroOrMoreEnd" class="marker zeroOrMore er" refX="39" refY="18" markerWidth="57" markerHeight="36" orient="auto"><circle fill="white" cx="9" cy="18" r="6"/><path d="M21,18 Q39,0 57,18 Q39,36 21,18"/></marker></defs><g class="root"><g class="clusters"/><g class="edgePaths"><path d="M167.566,524.948L155.535,535.29C143.503,545.632,119.439,566.316,107.407,592.325C95.375,618.333,95.375,649.667,95.375,665.333L95.375,681" id="my-svg-id_entity-EMPRESA_CANDIDATA-0_entity-LOCAL_CANDIDATO-1_0" class="edge-thickness-normal edge-pattern-solid relationshipLine" style="undefined;;;undefined" data-edge="true" data-et="edge" data-id="id_entity-EMPRESA_CANDIDATA-0_entity-LOCAL_CANDIDATO-1_0" data-points="W3sieCI6MTY3LjU2NjQwNjI1LCJ5Ijo1MjQuOTQ3ODI3NTQ3OTUwN30seyJ4Ijo5NS4zNzUsInkiOjU4N30seyJ4Ijo5NS4zNzUsInkiOjY4MX1d" data-look="classic" marker-start="url(#my-svg_er-onlyOneStart)" marker-end="url(#my-svg_er-zeroOrMoreEnd)"/><path d="M389.363,498.449L413.144,513.208C436.924,527.966,484.486,557.483,508.266,580.658C532.047,603.833,532.047,620.667,532.047,629.083L532.047,637.5" id="my-svg-id_entity-EMPRESA_CANDIDATA-0_entity-PIPELINE-2_1" class="edge-thickness-normal edge-pattern-solid relationshipLine" style="undefined;;;undefined" data-edge="true" data-et="edge" data-id="id_entity-EMPRESA_CANDIDATA-0_entity-PIPELINE-2_1" data-points="W3sieCI6Mzg5LjM2MzI4MTI1LCJ5Ijo0OTguNDQ5NDQxMjA5NTQ0NX0seyJ4Ijo1MzIuMDQ2ODc1LCJ5Ijo1ODd9LHsieCI6NTMyLjA0Njg3NSwieSI6NjM3LjV9XQ==" data-look="classic" marker-start="url(#my-svg_er-onlyOneStart)" marker-end="url(#my-svg_er-zeroOrOneEnd)"/><path d="M279.677,536.5L279.773,544.917C279.868,553.333,280.059,570.167,280.155,601.25C280.25,632.333,280.25,677.667,280.25,723C280.25,768.333,280.25,813.667,281.317,844.75C282.383,875.833,284.516,892.667,285.583,901.083L286.65,909.5" id="my-svg-id_entity-EMPRESA_CANDIDATA-0_entity-CONTA_COMERCIAL-3_2" class="edge-thickness-normal edge-pattern-solid relationshipLine" style="undefined;;;undefined" data-edge="true" data-et="edge" data-id="id_entity-EMPRESA_CANDIDATA-0_entity-CONTA_COMERCIAL-3_2" data-points="W3sieCI6Mjc5LjY3NzE2MTkzNDA3NDY2LCJ5Ijo1MzYuNX0seyJ4IjoyODAuMjUsInkiOjU4N30seyJ4IjoyODAuMjUsInkiOjcyM30seyJ4IjoyODAuMjUsInkiOjg1OX0seyJ4IjoyODYuNjQ5NTI4OTUyMjA1ODYsInkiOjkwOS41fV0=" data-look="classic" marker-start="url(#my-svg_er-onlyOneStart)" marker-end="url(#my-svg_er-zeroOrOneEnd)"/><path d="M352.266,206.844L339.965,217.745C327.665,228.646,303.065,250.448,290.765,269.766C278.465,289.083,278.465,305.917,278.465,314.333L278.465,322.75" id="my-svg-id_entity-SCORE_PROSPECCAO-4_entity-EMPRESA_CANDIDATA-0_3" class="edge-thickness-normal edge-pattern-solid relationshipLine" style="undefined;;;undefined" data-edge="true" data-et="edge" data-id="id_entity-SCORE_PROSPECCAO-4_entity-EMPRESA_CANDIDATA-0_3" data-points="W3sieCI6MzUyLjI2NTYyNSwieSI6MjA2Ljg0NDEyMDUyNjE4ODQyfSx7IngiOjI3OC40NjQ4NDM3NSwieSI6MjcyLjI1fSx7IngiOjI3OC40NjQ4NDM3NSwieSI6MzIyLjc1fV0=" data-look="classic" marker-start="url(#my-svg_er-zeroOrMoreStart)" marker-end="url(#my-svg_er-onlyOneEnd)"/><path d="M559.813,208.731L571.518,219.318C583.223,229.904,606.633,251.077,618.338,280.893C630.043,310.708,630.043,349.167,630.043,368.396L630.043,387.625" id="my-svg-id_entity-SCORE_PROSPECCAO-4_entity-MODELO_PROSPECCAO-5_4" class="edge-thickness-normal edge-pattern-solid relationshipLine" style="undefined;;;undefined" data-edge="true" data-et="edge" data-id="id_entity-SCORE_PROSPECCAO-4_entity-MODELO_PROSPECCAO-5_4" data-points="W3sieCI6NTU5LjgxMjUsInkiOjIwOC43MzExOTU5ODE1OTE2N30seyJ4Ijo2MzAuMDQyOTY4NzUsInkiOjI3Mi4yNX0seyJ4Ijo2MzAuMDQyOTY4NzUsInkiOjM4Ny42MjV9XQ==" data-look="classic" marker-start="url(#my-svg_er-zeroOrMoreStart)" marker-end="url(#my-svg_er-onlyOneEnd)"/><path d="M473.104,808.5L467.301,816.917C461.499,825.333,449.894,842.167,435.377,859C420.861,875.833,403.433,892.667,394.719,901.083L386.005,909.5" id="my-svg-id_entity-PIPELINE-2_entity-CONTA_COMERCIAL-3_5" class="edge-thickness-normal edge-pattern-solid relationshipLine" style="undefined;;;undefined" data-edge="true" data-et="edge" data-id="id_entity-PIPELINE-2_entity-CONTA_COMERCIAL-3_5" data-points="W3sieCI6NDczLjEwMzU0NDM0NzQyNjQ2LCJ5Ijo4MDguNX0seyJ4Ijo0MzguMjg5MDYyNSwieSI6ODU5fSx7IngiOjM4Ni4wMDQ5Njg5Nzk3Nzk0LCJ5Ijo5MDkuNX1d" data-look="classic" marker-start="url(#my-svg_er-onlyOneStart)" marker-end="url(#my-svg_er-zeroOrOneEnd)"/><path d="M603.367,808.5L610.388,816.917C617.409,825.333,631.451,842.167,638.471,866.25C645.492,890.333,645.492,921.667,645.492,937.333L645.492,953" id="my-svg-id_entity-PIPELINE-2_entity-COLETOR-6_6" class="edge-thickness-normal edge-pattern-solid relationshipLine" style="undefined;;;undefined" data-edge="true" data-et="edge" data-id="id_entity-PIPELINE-2_entity-COLETOR-6_6" data-points="W3sieCI6NjAzLjM2NzI3MzY2NzI3OTQsInkiOjgwOC41fSx7IngiOjY0NS40OTIxODc1LCJ5Ijo4NTl9LHsieCI6NjQ1LjQ5MjE4NzUsInkiOjk1M31d" data-look="classic" marker-start="url(#my-svg_er-onlyOneStart)" marker-end="url(#my-svg_er-zeroOrOneEnd)"/><path d="M297.484,1080.5L297.484,1088.917C297.484,1097.333,297.484,1114.167,297.484,1131C297.484,1147.833,297.484,1164.667,297.484,1173.083L297.484,1181.5" id="my-svg-id_entity-CONTA_COMERCIAL-3_entity-PARCEIRO-7_7" class="edge-thickness-normal edge-pattern-solid relationshipLine" style="undefined;;;undefined" data-edge="true" data-et="edge" data-id="id_entity-CONTA_COMERCIAL-3_entity-PARCEIRO-7_7" data-points="W3sieCI6Mjk3LjQ4NDM3NSwieSI6MTA4MC41fSx7IngiOjI5Ny40ODQzNzUsInkiOjExMzF9LHsieCI6Mjk3LjQ4NDM3NSwieSI6MTE4MS41fV0=" data-look="classic" marker-start="url(#my-svg_er-onlyOneStart)" marker-end="url(#my-svg_er-zeroOrOneEnd)"/></g><g class="edgeLabels"><g class="edgeLabel" transform="translate(95.375, 587)"><g class="label" data-id="id_entity-EMPRESA_CANDIDATA-0_entity-LOCAL_CANDIDATO-1_0" transform="translate(-12.40625, -10.5)"><foreignObject width="24.8125" height="21"><div xmlns="http://www.w3.org/1999/xhtml" class="labelBkg" style="display: table-cell; white-space: nowrap; line-height: 1.5; max-width: 200px; text-align: center;"><span class="edgeLabel"><p>tem</p></span></div></foreignObject></g></g><g class="edgeLabel" transform="translate(532.046875, 587)"><g class="label" data-id="id_entity-EMPRESA_CANDIDATA-0_entity-PIPELINE-2_1" transform="translate(-34.890625, -10.5)"><foreignObject width="69.78125" height="21"><div xmlns="http://www.w3.org/1999/xhtml" class="labelBkg" style="display: table-cell; white-space: nowrap; line-height: 1.5; max-width: 200px; text-align: center;"><span class="edgeLabel"><p>pipeline_id</p></span></div></foreignObject></g></g><g class="edgeLabel" transform="translate(280.25, 723)"><g class="label" data-id="id_entity-EMPRESA_CANDIDATA-0_entity-CONTA_COMERCIAL-3_2" transform="translate(-17.5, -10.5)"><foreignObject width="35" height="21"><div xmlns="http://www.w3.org/1999/xhtml" class="labelBkg" style="display: table-cell; white-space: nowrap; line-height: 1.5; max-width: 200px; text-align: center;"><span class="edgeLabel"><p>conta</p></span></div></foreignObject></g></g><g class="edgeLabel" transform="translate(278.46484375, 272.25)"><g class="label" data-id="id_entity-SCORE_PROSPECCAO-4_entity-EMPRESA_CANDIDATA-0_3" transform="translate(-36.1484375, -10.5)"><foreignObject width="72.296875" height="21"><div xmlns="http://www.w3.org/1999/xhtml" class="labelBkg" style="display: table-cell; white-space: nowrap; line-height: 1.5; max-width: 200px; text-align: center;"><span class="edgeLabel"><p>empresa_id</p></span></div></foreignObject></g></g><g class="edgeLabel" transform="translate(630.04296875, 272.25)"><g class="label" data-id="id_entity-SCORE_PROSPECCAO-4_entity-MODELO_PROSPECCAO-5_4" transform="translate(-32.6796875, -10.5)"><foreignObject width="65.359375" height="21"><div xmlns="http://www.w3.org/1999/xhtml" class="labelBkg" style="display: table-cell; white-space: nowrap; line-height: 1.5; max-width: 200px; text-align: center;"><span class="edgeLabel"><p>modelo_id</p></span></div></foreignObject></g></g><g class="edgeLabel" transform="translate(438.2890625, 859)"><g class="label" data-id="id_entity-PIPELINE-2_entity-CONTA_COMERCIAL-3_5" transform="translate(-61.515625, -10.5)"><foreignObject width="123.03125" height="21"><div xmlns="http://www.w3.org/1999/xhtml" class="labelBkg" style="display: table-cell; white-space: nowrap; line-height: 1.5; max-width: 200px; text-align: center;"><span class="edgeLabel"><p>conta_comercial_id</p></span></div></foreignObject></g></g><g class="edgeLabel" transform="translate(645.4921875, 859)"><g class="label" data-id="id_entity-PIPELINE-2_entity-COLETOR-6_6" transform="translate(-31.9296875, -10.5)"><foreignObject width="63.859375" height="21"><div xmlns="http://www.w3.org/1999/xhtml" class="labelBkg" style="display: table-cell; white-space: nowrap; line-height: 1.5; max-width: 200px; text-align: center;"><span class="edgeLabel"><p>coletor_id</p></span></div></foreignObject></g></g><g class="edgeLabel" transform="translate(297.484375, 1131)"><g class="label" data-id="id_entity-CONTA_COMERCIAL-3_entity-PARCEIRO-7_7" transform="translate(-35.625, -10.5)"><foreignObject width="71.25" height="21"><div xmlns="http://www.w3.org/1999/xhtml" class="labelBkg" style="display: table-cell; white-space: nowrap; line-height: 1.5; max-width: 200px; text-align: center;"><span class="edgeLabel"><p>parceiro_id</p></span></div></foreignObject></g></g></g><g class="nodes"><g class="node default" id="my-svg-entity-EMPRESA_CANDIDATA-0" data-look="classic" transform="translate(278.46484375, 429.625)"><g class="outer-path" style=""><path d="M-110.8984375 -106.875 L110.8984375 -106.875 L110.8984375 106.875 L-110.8984375 106.875" stroke="none" stroke-width="0" fill="#ECECFF"/><path d="M-110.8984375 -106.875 C-23.690503193267688 -106.875, 63.517431113464625 -106.875, 110.8984375 -106.875 M-110.8984375 -106.875 C-41.63640519205114 -106.875, 27.625627115897714 -106.875, 110.8984375 -106.875 M110.8984375 -106.875 C110.8984375 -44.99147571379441, 110.8984375 16.892048572411184, 110.8984375 106.875 M110.8984375 -106.875 C110.8984375 -35.703154341366584, 110.8984375 35.46869131726683, 110.8984375 106.875 M110.8984375 106.875 C23.477827358987298 106.875, -63.942782782025404 106.875, -110.8984375 106.875 M110.8984375 106.875 C62.61235808439988 106.875, 14.326278668799759 106.875, -110.8984375 106.875 M-110.8984375 106.875 C-110.8984375 36.20419841082601, -110.8984375 -34.46660317834798, -110.8984375 -106.875 M-110.8984375 106.875 C-110.8984375 50.71746736347636, -110.8984375 -5.440065273047281, -110.8984375 -106.875" stroke="#9370DB" stroke-width="1.3" fill="none" stroke-dasharray="0 0"/></g><g style="" class="row-rect-odd"><path d="M-110.8984375 -64.125 L110.8984375 -64.125 L110.8984375 -21.375 L-110.8984375 -21.375" stroke="none" stroke-width="0" fill="hsl(240, 100%, 100%)"/><path d="M-110.8984375 -64.125 C-64.66310192631256 -64.125, -18.427766352625127 -64.125, 110.8984375 -64.125 M-110.8984375 -64.125 C-29.72600997716924 -64.125, 51.44641754566152 -64.125, 110.8984375 -64.125 M110.8984375 -64.125 C110.8984375 -52.262582240893764, 110.8984375 -40.40016448178753, 110.8984375 -21.375 M110.8984375 -64.125 C110.8984375 -49.86175733435658, 110.8984375 -35.59851466871317, 110.8984375 -21.375 M110.8984375 -21.375 C53.45639042402186 -21.375, -3.985656651956276 -21.375, -110.8984375 -21.375 M110.8984375 -21.375 C35.662404578906774 -21.375, -39.57362834218645 -21.375, -110.8984375 -21.375 M-110.8984375 -21.375 C-110.8984375 -36.94685005812341, -110.8984375 -52.51870011624682, -110.8984375 -64.125 M-110.8984375 -21.375 C-110.8984375 -38.46163307434041, -110.8984375 -55.54826614868082, -110.8984375 -64.125" stroke="#9370DB" stroke-width="1.3" fill="none" stroke-dasharray="0 0"/></g><g style="" class="row-rect-even"><path d="M-110.8984375 -21.375 L110.8984375 -21.375 L110.8984375 21.375 L-110.8984375 21.375" stroke="none" stroke-width="0" fill="hsl(240, 100%, 97.2745098039%)"/><path d="M-110.8984375 -21.375 C-47.75431155856901 -21.375, 15.389814382861985 -21.375, 110.8984375 -21.375 M-110.8984375 -21.375 C-59.42315121240911 -21.375, -7.947864924818219 -21.375, 110.8984375 -21.375 M110.8984375 -21.375 C110.8984375 -8.794119897294298, 110.8984375 3.7867602054114045, 110.8984375 21.375 M110.8984375 -21.375 C110.8984375 -8.089948484635572, 110.8984375 5.1951030307288555, 110.8984375 21.375 M110.8984375 21.375 C44.95679069446258 21.375, -20.984856111074834 21.375, -110.8984375 21.375 M110.8984375 21.375 C40.11835161814551 21.375, -30.66173426370898 21.375, -110.8984375 21.375 M-110.8984375 21.375 C-110.8984375 9.745888218477857, -110.8984375 -1.883223563044286, -110.8984375 -21.375 M-110.8984375 21.375 C-110.8984375 10.656282323732162, -110.8984375 -0.062435352535676, -110.8984375 -21.375" stroke="#9370DB" stroke-width="1.3" fill="none" stroke-dasharray="0 0"/></g><g style="" class="row-rect-odd"><path d="M-110.8984375 21.375 L110.8984375 21.375 L110.8984375 64.125 L-110.8984375 64.125" stroke="none" stroke-width="0" fill="hsl(240, 100%, 100%)"/><path d="M-110.8984375 21.375 C-45.61181613253363 21.375, 19.674805234932734 21.375, 110.8984375 21.375 M-110.8984375 21.375 C-33.31721616939207 21.375, 44.26400516121586 21.375, 110.8984375 21.375 M110.8984375 21.375 C110.8984375 32.25144417529438, 110.8984375 43.12788835058876, 110.8984375 64.125 M110.8984375 21.375 C110.8984375 37.112700906878246, 110.8984375 52.8504018137565, 110.8984375 64.125 M110.8984375 64.125 C63.753900042047874 64.125, 16.60936258409575 64.125, -110.8984375 64.125 M110.8984375 64.125 C42.10384326044452 64.125, -26.69075097911096 64.125, -110.8984375 64.125 M-110.8984375 64.125 C-110.8984375 53.2068269691691, -110.8984375 42.2886539383382, -110.8984375 21.375 M-110.8984375 64.125 C-110.8984375 51.84688408295418, -110.8984375 39.56876816590837, -110.8984375 21.375" stroke="#9370DB" stroke-width="1.3" fill="none" stroke-dasharray="0 0"/></g><g style="" class="row-rect-even"><path d="M-110.8984375 64.125 L110.8984375 64.125 L110.8984375 106.875 L-110.8984375 106.875" stroke="none" stroke-width="0" fill="hsl(240, 100%, 97.2745098039%)"/><path d="M-110.8984375 64.125 C-33.42541778926514 64.125, 44.04760192146972 64.125, 110.8984375 64.125 M-110.8984375 64.125 C-44.35803260719088 64.125, 22.182372285618243 64.125, 110.8984375 64.125 M110.8984375 64.125 C110.8984375 75.17828237205622, 110.8984375 86.23156474411243, 110.8984375 106.875 M110.8984375 64.125 C110.8984375 74.70226232158531, 110.8984375 85.27952464317062, 110.8984375 106.875 M110.8984375 106.875 C56.65191789753966 106.875, 2.4053982950793227 106.875, -110.8984375 106.875 M110.8984375 106.875 C35.89489590469677 106.875, -39.108645690606465 106.875, -110.8984375 106.875 M-110.8984375 106.875 C-110.8984375 95.87970965202176, -110.8984375 84.88441930404352, -110.8984375 64.125 M-110.8984375 106.875 C-110.8984375 92.27253088122673, -110.8984375 77.67006176245346, -110.8984375 64.125" stroke="#9370DB" stroke-width="1.3" fill="none" stroke-dasharray="0 0"/></g><g class="label name" transform="translate(-75.3046875, -97.5)" style=""><foreignObject width="150.609375" height="24"><div xmlns="http://www.w3.org/1999/xhtml" style="display: table-cell; white-space: nowrap; line-height: 1.5; max-width: 275px; text-align: start;"><span class="nodeLabel"><p>EMPRESA_CANDIDATA</p></span></div></foreignObject></g><g class="label attribute-type" transform="translate(-98.3984375, -54.75)" style=""><foreignObject width="19.65625" height="24"><div xmlns="http://www.w3.org/1999/xhtml" style="display: table-cell; white-space: nowrap; line-height: 1.5; max-width: 117px; text-align: start;"><span class="nodeLabel"><p>int</p></span></div></foreignObject></g><g class="label attribute-name" transform="translate(-33.0234375, -54.75)" style=""><foreignObject width="13.484375" height="24"><div xmlns="http://www.w3.org/1999/xhtml" style="display: table-cell; white-space: nowrap; line-height: 1.5; max-width: 113px; text-align: start;"><span class="nodeLabel"><p>id</p></span></div></foreignObject></g><g class="label attribute-keys" transform="translate(80.2578125, -54.75)" style=""><foreignObject width="18.140625" height="24"><div xmlns="http://www.w3.org/1999/xhtml" style="display: table-cell; white-space: nowrap; line-height: 1.5; max-width: 122px; text-align: start;"><span class="nodeLabel"><p>PK</p></span></div></foreignObject></g><g class="label attribute-comment" transform="translate(123.3984375, -54.75)" style=""><foreignObject width="0" height="0"><div xmlns="http://www.w3.org/1999/xhtml" style="display: table-cell; white-space: nowrap; line-height: 1.5; max-width: 100px; text-align: start;"><span class="nodeLabel"></span></div></foreignObject></g><g class="label attribute-type" transform="translate(-98.3984375, -12)" style=""><foreignObject width="40.375" height="24"><div xmlns="http://www.w3.org/1999/xhtml" style="display: table-cell; white-space: nowrap; line-height: 1.5; max-width: 136px; text-align: start;"><span class="nodeLabel"><p>string</p></span></div></foreignObject></g><g class="label attribute-name" transform="translate(-33.0234375, -12)" style=""><foreignObject width="31.453125" height="24"><div xmlns="http://www.w3.org/1999/xhtml" style="display: table-cell; white-space: nowrap; line-height: 1.5; max-width: 128px; text-align: start;"><span class="nodeLabel"><p>cnpj</p></span></div></foreignObject></g><g class="label attribute-keys" transform="translate(80.2578125, -12)" style=""><foreignObject width="0" height="0"><div xmlns="http://www.w3.org/1999/xhtml" style="display: table-cell; white-space: nowrap; line-height: 1.5; max-width: 100px; text-align: start;"><span class="nodeLabel"></span></div></foreignObject></g><g class="label attribute-comment" transform="translate(123.3984375, -12)" style=""><foreignObject width="0" height="0"><div xmlns="http://www.w3.org/1999/xhtml" style="display: table-cell; white-space: nowrap; line-height: 1.5; max-width: 100px; text-align: start;"><span class="nodeLabel"></span></div></foreignObject></g><g class="label attribute-type" transform="translate(-98.3984375, 30.75)" style=""><foreignObject width="40.375" height="24"><div xmlns="http://www.w3.org/1999/xhtml" style="display: table-cell; white-space: nowrap; line-height: 1.5; max-width: 136px; text-align: start;"><span class="nodeLabel"><p>string</p></span></div></foreignObject></g><g class="label attribute-name" transform="translate(-33.0234375, 30.75)" style=""><foreignObject width="88.28125" height="24"><div xmlns="http://www.w3.org/1999/xhtml" style="display: table-cell; white-space: nowrap; line-height: 1.5; max-width: 182px; text-align: start;"><span class="nodeLabel"><p>razao_social</p></span></div></foreignObject></g><g class="label attribute-keys" transform="translate(80.2578125, 30.75)" style=""><foreignObject width="0" height="0"><div xmlns="http://www.w3.org/1999/xhtml" style="display: table-cell; white-space: nowrap; line-height: 1.5; max-width: 100px; text-align: start;"><span class="nodeLabel"></span></div></foreignObject></g><g class="label attribute-comment" transform="translate(123.3984375, 30.75)" style=""><foreignObject width="0" height="0"><div xmlns="http://www.w3.org/1999/xhtml" style="display: table-cell; white-space: nowrap; line-height: 1.5; max-width: 100px; text-align: start;"><span class="nodeLabel"></span></div></foreignObject></g><g class="label attribute-type" transform="translate(-98.3984375, 73.5)" style=""><foreignObject width="19.65625" height="24"><div xmlns="http://www.w3.org/1999/xhtml" style="display: table-cell; white-space: nowrap; line-height: 1.5; max-width: 117px; text-align: start;"><span class="nodeLabel"><p>int</p></span></div></foreignObject></g><g class="label attribute-name" transform="translate(-33.0234375, 73.5)" style=""><foreignObject width="79.734375" height="24"><div xmlns="http://www.w3.org/1999/xhtml" style="display: table-cell; white-space: nowrap; line-height: 1.5; max-width: 174px; text-align: start;"><span class="nodeLabel"><p>pipeline_id</p></span></div></foreignObject></g><g class="label attribute-keys" transform="translate(80.2578125, 73.5)" style=""><foreignObject width="17.609375" height="24"><div xmlns="http://www.w3.org/1999/xhtml" style="display: table-cell; white-space: nowrap; line-height: 1.5; max-width: 122px; text-align: start;"><span class="nodeLabel"><p>FK</p></span></div></foreignObject></g><g class="label attribute-comment" transform="translate(123.3984375, 73.5)" style=""><foreignObject width="0" height="0"><div xmlns="http://www.w3.org/1999/xhtml" style="display: table-cell; white-space: nowrap; line-height: 1.5; max-width: 100px; text-align: start;"><span class="nodeLabel"></span></div></foreignObject></g><g class="divider"><path d="M-110.8984375 -64.12505 L-110.8984375 -64.12495 L110.8984375 -64.12495 L110.8984375 -64.12505" stroke="none" stroke-width="0" fill="#ECECFF" fill-rule="evenodd"/><path d="M-110.8984375 -64.12505 C-110.8984375 -64.12501291602726, -110.8984375 -64.1249758320545, -110.8984375 -64.12495 M-110.8984375 -64.12505 C-110.8984375 -64.12501213741879, -110.8984375 -64.12497427483758, -110.8984375 -64.12495 M-110.8984375 -64.12495 C-24.888967465270838 -64.12495, 61.120502569458324 -64.12495, 110.8984375 -64.12495 M-110.8984375 -64.12495 C-33.85819626948205 -64.12495, 43.1820449610359 -64.12495, 110.8984375 -64.12495 M110.8984375 -64.12495 C110.8984375 -64.12497328914246, 110.8984375 -64.12499657828494, 110.8984375 -64.12505 M110.8984375 -64.12495 C110.8984375 -64.12498658882157, 110.8984375 -64.12502317764313, 110.8984375 -64.12505 M110.8984375 -64.12505 C40.41181464215069 -64.12505, -30.074808215698624 -64.12505, -110.8984375 -64.12505 M110.8984375 -64.12505 C28.43509253117712 -64.12505, -54.02825243764576 -64.12505, -110.8984375 -64.12505" stroke="#9370DB" stroke-width="1.3" fill="none" stroke-dasharray="0 0"/></g><g class="divider"><path d="M-45.5234875 -64.125 L-45.5233875 -64.125 L-45.5233875 106.875 L-45.5234875 106.875" stroke="none" stroke-width="0" fill="#ECECFF" fill-rule="evenodd"/><path d="M-45.5234875 -64.125 C-45.523458675719375 -64.125, -45.52342985143875 -64.125, -45.5233875 -64.125 M-45.5234875 -64.125 C-45.52346003159963 -64.125, -45.523432563199265 -64.125, -45.5233875 -64.125 M-45.5233875 -64.125 C-45.5233875 -5.448166568789702, -45.5233875 53.228666862420596, -45.5233875 106.875 M-45.5233875 -64.125 C-45.5233875 -13.645949053044944, -45.5233875 36.83310189391011, -45.5233875 106.875 M-45.5233875 106.875 C-45.523423206101576 106.875, -45.52345891220315 106.875, -45.5234875 106.875 M-45.5233875 106.875 C-45.52340873926525 106.875, -45.523429978530494 106.875, -45.5234875 106.875 M-45.5234875 106.875 C-45.5234875 43.492988452815396, -45.5234875 -19.889023094369207, -45.5234875 -64.125 M-45.5234875 106.875 C-45.5234875 47.25818230554529, -45.5234875 -12.35863538890942, -45.5234875 -64.125" stroke="#9370DB" stroke-width="1.3" fill="none" stroke-dasharray="0 0"/></g><g class="divider"><path d="M67.7577625 -64.125 L67.7578625 -64.125 L67.7578625 106.875 L67.7577625 106.875" stroke="none" stroke-width="0" fill="#ECECFF" fill-rule="evenodd"/><path d="M67.7577625 -64.125 C67.75779983456927 -64.125, 67.75783716913854 -64.125, 67.7578625 -64.125 M67.7577625 -64.125 C67.75779270205669 -64.125, 67.75782290411338 -64.125, 67.7578625 -64.125 M67.7578625 -64.125 C67.7578625 -24.440337697479364, 67.7578625 15.244324605041271, 67.7578625 106.875 M67.7578625 -64.125 C67.7578625 -12.265651683572358, 67.7578625 39.593696632855284, 67.7578625 106.875 M67.7578625 106.875 C67.75784020572044 106.875, 67.75781791144087 106.875, 67.7577625 106.875 M67.7578625 106.875 C67.75782444284297 106.875, 67.75778638568596 106.875, 67.7577625 106.875 M67.7577625 106.875 C67.7577625 53.57205221662677, 67.7577625 0.2691044332535455, 67.7577625 -64.125 M67.7577625 106.875 C67.7577625 59.719731826286456, 67.7577625 12.564463652572911, 67.7577625 -64.125" stroke="#9370DB" stroke-width="1.3" fill="none" stroke-dasharray="0 0"/></g><g class="divider"><path d="M-110.8984375 -64.12505 L-110.8984375 -64.12495 L110.8984375 -64.12495 L110.8984375 -64.12505" stroke="none" stroke-width="0" fill="#ECECFF" fill-rule="evenodd"/><path d="M-110.8984375 -64.12505 C-110.8984375 -64.12501534723481, -110.8984375 -64.1249806944696, -110.8984375 -64.12495 M-110.8984375 -64.12505 C-110.8984375 -64.12502553497315, -110.8984375 -64.12500106994631, -110.8984375 -64.12495 M-110.8984375 -64.12495 C-31.701503133522067 -64.12495, 47.495431232955866 -64.12495, 110.8984375 -64.12495 M-110.8984375 -64.12495 C-25.350813638556616 -64.12495, 60.19681022288677 -64.12495, 110.8984375 -64.12495 M110.8984375 -64.12495 C110.8984375 -64.1249855572374, 110.8984375 -64.12502111447479, 110.8984375 -64.12505 M110.8984375 -64.12495 C110.8984375 -64.12498490897734, 110.8984375 -64.12501981795467, 110.8984375 -64.12505 M110.8984375 -64.12505 C28.302845057550172 -64.12505, -54.292747384899656 -64.12505, -110.8984375 -64.12505 M110.8984375 -64.12505 C53.189620396722674 -64.12505, -4.519196706554652 -64.12505, -110.8984375 -64.12505" stroke="#9370DB" stroke-width="1.3" fill="none" stroke-dasharray="0 0"/></g></g><g class="node default" id="my-svg-entity-LOCAL_CANDIDATO-1" data-look="classic" transform="translate(95.375, 723)"><rect class="basic label-container" style="" x="-87.375" y="-42" width="174.75" height="84"/><g class="label" style="" transform="translate(-67.375, -12)"><rect/><foreignObject width="134.75" height="24"><div xmlns="http://www.w3.org/1999/xhtml" style="display: table-cell; white-space: nowrap; line-height: 1.5; max-width: 200px; text-align: center;"><span class="nodeLabel markdown-node-label"><p>LOCAL_CANDIDATO</p></span></div></foreignObject></g></g><g class="node default" id="my-svg-entity-PIPELINE-2" data-look="classic" transform="translate(532.046875, 723)"><g class="outer-path" style=""><path d="M-137.0625 -85.5 L137.0625 -85.5 L137.0625 85.5 L-137.0625 85.5" stroke="none" stroke-width="0" fill="#ECECFF"/><path d="M-137.0625 -85.5 C-36.240339990161914 -85.5, 64.58182001967617 -85.5, 137.0625 -85.5 M-137.0625 -85.5 C-62.05443596476988 -85.5, 12.95362807046024 -85.5, 137.0625 -85.5 M137.0625 -85.5 C137.0625 -48.506376284106786, 137.0625 -11.512752568213571, 137.0625 85.5 M137.0625 -85.5 C137.0625 -44.530725391158725, 137.0625 -3.5614507823174506, 137.0625 85.5 M137.0625 85.5 C49.335843256116775 85.5, -38.39081348776645 85.5, -137.0625 85.5 M137.0625 85.5 C51.02343747287708 85.5, -35.015625054245845 85.5, -137.0625 85.5 M-137.0625 85.5 C-137.0625 29.303174731231657, -137.0625 -26.893650537536686, -137.0625 -85.5 M-137.0625 85.5 C-137.0625 32.407834161539625, -137.0625 -20.68433167692075, -137.0625 -85.5" stroke="#9370DB" stroke-width="1.3" fill="none" stroke-dasharray="0 0"/></g><g style="" class="row-rect-odd"><path d="M-137.0625 -42.75 L137.0625 -42.75 L137.0625 0 L-137.0625 0" stroke="none" stroke-width="0" fill="hsl(240, 100%, 100%)"/><path d="M-137.0625 -42.75 C-80.0261277823673 -42.75, -22.98975556473458 -42.75, 137.0625 -42.75 M-137.0625 -42.75 C-57.34305772103134 -42.75, 22.376384557937314 -42.75, 137.0625 -42.75 M137.0625 -42.75 C137.0625 -33.02910274126444, 137.0625 -23.308205482528876, 137.0625 0 M137.0625 -42.75 C137.0625 -30.1675045527802, 137.0625 -17.5850091055604, 137.0625 0 M137.0625 0 C45.59240611960148 0, -45.877687760797045 0, -137.0625 0 M137.0625 0 C31.25002416255208 0, -74.56245167489584 0, -137.0625 0 M-137.0625 0 C-137.0625 -14.70715082207454, -137.0625 -29.41430164414908, -137.0625 -42.75 M-137.0625 0 C-137.0625 -16.04428675236283, -137.0625 -32.08857350472566, -137.0625 -42.75" stroke="#9370DB" stroke-width="1.3" fill="none" stroke-dasharray="0 0"/></g><g style="" class="row-rect-even"><path d="M-137.0625 0 L137.0625 0 L137.0625 42.75 L-137.0625 42.75" stroke="none" stroke-width="0" fill="hsl(240, 100%, 97.2745098039%)"/><path d="M-137.0625 0 C-43.17899318566582 0, 50.704513628668366 0, 137.0625 0 M-137.0625 0 C-79.41940161360128 0, -21.77630322720256 0, 137.0625 0 M137.0625 0 C137.0625 10.10446189603272, 137.0625 20.20892379206544, 137.0625 42.75 M137.0625 0 C137.0625 14.96619371346247, 137.0625 29.93238742692494, 137.0625 42.75 M137.0625 42.75 C29.034196702054274 42.75, -78.99410659589145 42.75, -137.0625 42.75 M137.0625 42.75 C29.150015628894465 42.75, -78.76246874221107 42.75, -137.0625 42.75 M-137.0625 42.75 C-137.0625 32.537966744161324, -137.0625 22.325933488322654, -137.0625 0 M-137.0625 42.75 C-137.0625 28.853675908979017, -137.0625 14.957351817958035, -137.0625 0" stroke="#9370DB" stroke-width="1.3" fill="none" stroke-dasharray="0 0"/></g><g style="" class="row-rect-odd"><path d="M-137.0625 42.75 L137.0625 42.75 L137.0625 85.5 L-137.0625 85.5" stroke="none" stroke-width="0" fill="hsl(240, 100%, 100%)"/><path d="M-137.0625 42.75 C-56.3514144408132 42.75, 24.359671118373598 42.75, 137.0625 42.75 M-137.0625 42.75 C-33.62599986098664 42.75, 69.81050027802672 42.75, 137.0625 42.75 M137.0625 42.75 C137.0625 52.73892110504807, 137.0625 62.72784221009614, 137.0625 85.5 M137.0625 42.75 C137.0625 55.541609567286585, 137.0625 68.33321913457317, 137.0625 85.5 M137.0625 85.5 C75.93632580473869 85.5, 14.810151609477387 85.5, -137.0625 85.5 M137.0625 85.5 C75.41361179185824 85.5, 13.764723583716489 85.5, -137.0625 85.5 M-137.0625 85.5 C-137.0625 68.91154239529247, -137.0625 52.323084790584936, -137.0625 42.75 M-137.0625 85.5 C-137.0625 72.00738798468464, -137.0625 58.514775969369296, -137.0625 42.75" stroke="#9370DB" stroke-width="1.3" fill="none" stroke-dasharray="0 0"/></g><g class="label name" transform="translate(-31.1015625, -76.125)" style=""><foreignObject width="62.203125" height="24"><div xmlns="http://www.w3.org/1999/xhtml" style="display: table-cell; white-space: nowrap; line-height: 1.5; max-width: 171px; text-align: start;"><span class="nodeLabel"><p>PIPELINE</p></span></div></foreignObject></g><g class="label attribute-type" transform="translate(-124.5625, -33.375)" style=""><foreignObject width="19.65625" height="24"><div xmlns="http://www.w3.org/1999/xhtml" style="display: table-cell; white-space: nowrap; line-height: 1.5; max-width: 117px; text-align: start;"><span class="nodeLabel"><p>int</p></span></div></foreignObject></g><g class="label attribute-name" transform="translate(-59.1875, -33.375)" style=""><foreignObject width="13.484375" height="24"><div xmlns="http://www.w3.org/1999/xhtml" style="display: table-cell; white-space: nowrap; line-height: 1.5; max-width: 113px; text-align: start;"><span class="nodeLabel"><p>id</p></span></div></foreignObject></g><g class="label attribute-keys" transform="translate(106.421875, -33.375)" style=""><foreignObject width="18.140625" height="24"><div xmlns="http://www.w3.org/1999/xhtml" style="display: table-cell; white-space: nowrap; line-height: 1.5; max-width: 122px; text-align: start;"><span class="nodeLabel"><p>PK</p></span></div></foreignObject></g><g class="label attribute-comment" transform="translate(149.5625, -33.375)" style=""><foreignObject width="0" height="0"><div xmlns="http://www.w3.org/1999/xhtml" style="display: table-cell; white-space: nowrap; line-height: 1.5; max-width: 100px; text-align: start;"><span class="nodeLabel"></span></div></foreignObject></g><g class="label attribute-type" transform="translate(-124.5625, 9.375)" style=""><foreignObject width="40.375" height="24"><div xmlns="http://www.w3.org/1999/xhtml" style="display: table-cell; white-space: nowrap; line-height: 1.5; max-width: 136px; text-align: start;"><span class="nodeLabel"><p>string</p></span></div></foreignObject></g><g class="label attribute-name" transform="translate(-59.1875, 9.375)" style=""><foreignObject width="42.796875" height="24"><div xmlns="http://www.w3.org/1999/xhtml" style="display: table-cell; white-space: nowrap; line-height: 1.5; max-width: 136px; text-align: start;"><span class="nodeLabel"><p>status</p></span></div></foreignObject></g><g class="label attribute-keys" transform="translate(106.421875, 9.375)" style=""><foreignObject width="0" height="0"><div xmlns="http://www.w3.org/1999/xhtml" style="display: table-cell; white-space: nowrap; line-height: 1.5; max-width: 100px; text-align: start;"><span class="nodeLabel"></span></div></foreignObject></g><g class="label attribute-comment" transform="translate(149.5625, 9.375)" style=""><foreignObject width="0" height="0"><div xmlns="http://www.w3.org/1999/xhtml" style="display: table-cell; white-space: nowrap; line-height: 1.5; max-width: 100px; text-align: start;"><span class="nodeLabel"></span></div></foreignObject></g><g class="label attribute-type" transform="translate(-124.5625, 52.125)" style=""><foreignObject width="19.65625" height="24"><div xmlns="http://www.w3.org/1999/xhtml" style="display: table-cell; white-space: nowrap; line-height: 1.5; max-width: 117px; text-align: start;"><span class="nodeLabel"><p>int</p></span></div></foreignObject></g><g class="label attribute-name" transform="translate(-59.1875, 52.125)" style=""><foreignObject width="140.609375" height="24"><div xmlns="http://www.w3.org/1999/xhtml" style="display: table-cell; white-space: nowrap; line-height: 1.5; max-width: 227px; text-align: start;"><span class="nodeLabel"><p>conta_comercial_id</p></span></div></foreignObject></g><g class="label attribute-keys" transform="translate(106.421875, 52.125)" style=""><foreignObject width="17.609375" height="24"><div xmlns="http://www.w3.org/1999/xhtml" style="display: table-cell; white-space: nowrap; line-height: 1.5; max-width: 122px; text-align: start;"><span class="nodeLabel"><p>FK</p></span></div></foreignObject></g><g class="label attribute-comment" transform="translate(149.5625, 52.125)" style=""><foreignObject width="0" height="0"><div xmlns="http://www.w3.org/1999/xhtml" style="display: table-cell; white-space: nowrap; line-height: 1.5; max-width: 100px; text-align: start;"><span class="nodeLabel"></span></div></foreignObject></g><g class="divider"><path d="M-137.0625 -42.75005 L-137.0625 -42.74995 L137.0625 -42.74995 L137.0625 -42.75005" stroke="none" stroke-width="0" fill="#ECECFF" fill-rule="evenodd"/><path d="M-137.0625 -42.75005 C-137.0625 -42.75001808688311, -137.0625 -42.74998617376622, -137.0625 -42.74995 M-137.0625 -42.75005 C-137.0625 -42.7500242056038, -137.0625 -42.7499984112076, -137.0625 -42.74995 M-137.0625 -42.74995 C-61.80374676991998 -42.74995, 13.455006460160035 -42.74995, 137.0625 -42.74995 M-137.0625 -42.74995 C-54.25085093103327 -42.74995, 28.56079813793346 -42.74995, 137.0625 -42.74995 M137.0625 -42.74995 C137.0625 -42.749982027333694, 137.0625 -42.75001405466739, 137.0625 -42.75005 M137.0625 -42.74995 C137.0625 -42.749971904268996, 137.0625 -42.749993808538, 137.0625 -42.75005 M137.0625 -42.75005 C31.121489345452545 -42.75005, -74.81952130909491 -42.75005, -137.0625 -42.75005 M137.0625 -42.75005 C65.2469732611899 -42.75005, -6.568553477620213 -42.75005, -137.0625 -42.75005" stroke="#9370DB" stroke-width="1.3" fill="none" stroke-dasharray="0 0"/></g><g class="divider"><path d="M-71.68755 -42.75 L-71.68745 -42.75 L-71.68745 85.5 L-71.68755 85.5" stroke="none" stroke-width="0" fill="#ECECFF" fill-rule="evenodd"/><path d="M-71.68755 -42.75 C-71.6875264278696 -42.75, -71.6875028557392 -42.75, -71.68745 -42.75 M-71.68755 -42.75 C-71.68752073476061 -42.75, -71.68749146952122 -42.75, -71.68745 -42.75 M-71.68745 -42.75 C-71.68745 -9.291799311905145, -71.68745 24.16640137618971, -71.68745 85.5 M-71.68745 -42.75 C-71.68745 -13.10144013168171, -71.68745 16.54711973663658, -71.68745 85.5 M-71.68745 85.5 C-71.68748610358509 85.5, -71.68752220717018 85.5, -71.68755 85.5 M-71.68745 85.5 C-71.68747031818353 85.5, -71.68749063636706 85.5, -71.68755 85.5 M-71.68755 85.5 C-71.68755 50.83416561295705, -71.68755 16.168331225914102, -71.68755 -42.75 M-71.68755 85.5 C-71.68755 45.1379645297371, -71.68755 4.775929059474194, -71.68755 -42.75" stroke="#9370DB" stroke-width="1.3" fill="none" stroke-dasharray="0 0"/></g><g class="divider"><path d="M93.921825 -42.75 L93.921925 -42.75 L93.921925 85.5 L93.921825 85.5" stroke="none" stroke-width="0" fill="#ECECFF" fill-rule="evenodd"/><path d="M93.921825 -42.75 C93.92184719945477 -42.75, 93.92186939890955 -42.75, 93.921925 -42.75 M93.921825 -42.75 C93.9218648479443 -42.75, 93.92190469588861 -42.75, 93.921925 -42.75 M93.921925 -42.75 C93.921925 0.3258502117164923, 93.921925 43.401700423432985, 93.921925 85.5 M93.921925 -42.75 C93.921925 -14.610225278841092, 93.921925 13.529549442317816, 93.921925 85.5 M93.921925 85.5 C93.92189968646466 85.5, 93.92187437292931 85.5, 93.921825 85.5 M93.921925 85.5 C93.92188751695231 85.5, 93.92185003390462 85.5, 93.921825 85.5 M93.921825 85.5 C93.921825 48.08188717996268, 93.921825 10.663774359925355, 93.921825 -42.75 M93.921825 85.5 C93.921825 47.914104456381125, 93.921825 10.32820891276225, 93.921825 -42.75" stroke="#9370DB" stroke-width="1.3" fill="none" stroke-dasharray="0 0"/></g><g class="divider"><path d="M-137.0625 -42.75005 L-137.0625 -42.74995 L137.0625 -42.74995 L137.0625 -42.75005" stroke="none" stroke-width="0" fill="#ECECFF" fill-rule="evenodd"/><path d="M-137.0625 -42.75005 C-137.0625 -42.75001749776611, -137.0625 -42.74998499553222, -137.0625 -42.74995 M-137.0625 -42.75005 C-137.0625 -42.75001431721417, -137.0625 -42.749978634428345, -137.0625 -42.74995 M-137.0625 -42.74995 C-59.59708355948618 -42.74995, 17.86833288102764 -42.74995, 137.0625 -42.74995 M-137.0625 -42.74995 C-53.81671595558217 -42.74995, 29.429068088835663 -42.74995, 137.0625 -42.74995 M137.0625 -42.74995 C137.0625 -42.74997815373971, 137.0625 -42.75000630747943, 137.0625 -42.75005 M137.0625 -42.74995 C137.0625 -42.74997887221634, 137.0625 -42.750007744432686, 137.0625 -42.75005 M137.0625 -42.75005 C47.09138309847057 -42.75005, -42.879733803058855 -42.75005, -137.0625 -42.75005 M137.0625 -42.75005 C77.82083607921918 -42.75005, 18.579172158438354 -42.75005, -137.0625 -42.75005" stroke="#9370DB" stroke-width="1.3" fill="none" stroke-dasharray="0 0"/></g></g><g class="node default" id="my-svg-entity-CONTA_COMERCIAL-3" data-look="classic" transform="translate(297.484375, 995)"><g class="outer-path" style=""><path d="M-108.1953125 -85.5 L108.1953125 -85.5 L108.1953125 85.5 L-108.1953125 85.5" stroke="none" stroke-width="0" fill="#ECECFF"/><path d="M-108.1953125 -85.5 C-44.828214477825334 -85.5, 18.538883544349332 -85.5, 108.1953125 -85.5 M-108.1953125 -85.5 C-42.17478246373484 -85.5, 23.845747572530314 -85.5, 108.1953125 -85.5 M108.1953125 -85.5 C108.1953125 -30.86123952686249, 108.1953125 23.77752094627502, 108.1953125 85.5 M108.1953125 -85.5 C108.1953125 -30.383863436079587, 108.1953125 24.732273127840827, 108.1953125 85.5 M108.1953125 85.5 C50.43961170324955 85.5, -7.316089093500906 85.5, -108.1953125 85.5 M108.1953125 85.5 C36.72552939385092 85.5, -34.74425371229816 85.5, -108.1953125 85.5 M-108.1953125 85.5 C-108.1953125 19.077637526458574, -108.1953125 -47.34472494708285, -108.1953125 -85.5 M-108.1953125 85.5 C-108.1953125 21.309949341492526, -108.1953125 -42.88010131701495, -108.1953125 -85.5" stroke="#9370DB" stroke-width="1.3" fill="none" stroke-dasharray="0 0"/></g><g style="" class="row-rect-odd"><path d="M-108.1953125 -42.75 L108.1953125 -42.75 L108.1953125 0 L-108.1953125 0" stroke="none" stroke-width="0" fill="hsl(240, 100%, 100%)"/><path d="M-108.1953125 -42.75 C-60.28659030222026 -42.75, -12.377868104440523 -42.75, 108.1953125 -42.75 M-108.1953125 -42.75 C-22.39568888844323 -42.75, 63.40393472311354 -42.75, 108.1953125 -42.75 M108.1953125 -42.75 C108.1953125 -32.411116963001334, 108.1953125 -22.07223392600267, 108.1953125 0 M108.1953125 -42.75 C108.1953125 -28.419115602024075, 108.1953125 -14.08823120404815, 108.1953125 0 M108.1953125 0 C50.778665359639255 0, -6.637981780721489 0, -108.1953125 0 M108.1953125 0 C60.83124842484492 0, 13.467184349689845 0, -108.1953125 0 M-108.1953125 0 C-108.1953125 -15.267046049154478, -108.1953125 -30.534092098308957, -108.1953125 -42.75 M-108.1953125 0 C-108.1953125 -9.647402933669545, -108.1953125 -19.29480586733909, -108.1953125 -42.75" stroke="#9370DB" stroke-width="1.3" fill="none" stroke-dasharray="0 0"/></g><g style="" class="row-rect-even"><path d="M-108.1953125 0 L108.1953125 0 L108.1953125 42.75 L-108.1953125 42.75" stroke="none" stroke-width="0" fill="hsl(240, 100%, 97.2745098039%)"/><path d="M-108.1953125 0 C-40.51420559863786 0, 27.166901302724284 0, 108.1953125 0 M-108.1953125 0 C-25.112416180584717 0, 57.97048013883057 0, 108.1953125 0 M108.1953125 0 C108.1953125 15.510987664801089, 108.1953125 31.021975329602178, 108.1953125 42.75 M108.1953125 0 C108.1953125 14.284720084212234, 108.1953125 28.569440168424467, 108.1953125 42.75 M108.1953125 42.75 C26.430265156022244 42.75, -55.33478218795551 42.75, -108.1953125 42.75 M108.1953125 42.75 C28.707999523995525 42.75, -50.77931345200895 42.75, -108.1953125 42.75 M-108.1953125 42.75 C-108.1953125 27.18990717256223, -108.1953125 11.629814345124458, -108.1953125 0 M-108.1953125 42.75 C-108.1953125 31.877320106452366, -108.1953125 21.00464021290473, -108.1953125 0" stroke="#9370DB" stroke-width="1.3" fill="none" stroke-dasharray="0 0"/></g><g style="" class="row-rect-odd"><path d="M-108.1953125 42.75 L108.1953125 42.75 L108.1953125 85.5 L-108.1953125 85.5" stroke="none" stroke-width="0" fill="hsl(240, 100%, 100%)"/><path d="M-108.1953125 42.75 C-57.49182104265209 42.75, -6.788329585304183 42.75, 108.1953125 42.75 M-108.1953125 42.75 C-52.544265585240076 42.75, 3.1067813295198476 42.75, 108.1953125 42.75 M108.1953125 42.75 C108.1953125 59.67958775403014, 108.1953125 76.60917550806028, 108.1953125 85.5 M108.1953125 42.75 C108.1953125 52.63072380397084, 108.1953125 62.511447607941676, 108.1953125 85.5 M108.1953125 85.5 C51.608518795047296 85.5, -4.978274909905409 85.5, -108.1953125 85.5 M108.1953125 85.5 C47.444695805722745 85.5, -13.30592088855451 85.5, -108.1953125 85.5 M-108.1953125 85.5 C-108.1953125 76.41717318215628, -108.1953125 67.33434636431254, -108.1953125 42.75 M-108.1953125 85.5 C-108.1953125 69.77657126378267, -108.1953125 54.05314252756534, -108.1953125 42.75" stroke="#9370DB" stroke-width="1.3" fill="none" stroke-dasharray="0 0"/></g><g class="label name" transform="translate(-68.640625, -76.125)" style=""><foreignObject width="137.28125" height="24"><div xmlns="http://www.w3.org/1999/xhtml" style="display: table-cell; white-space: nowrap; line-height: 1.5; max-width: 256px; text-align: start;"><span class="nodeLabel"><p>CONTA_COMERCIAL</p></span></div></foreignObject></g><g class="label attribute-type" transform="translate(-95.6953125, -33.375)" style=""><foreignObject width="19.65625" height="24"><div xmlns="http://www.w3.org/1999/xhtml" style="display: table-cell; white-space: nowrap; line-height: 1.5; max-width: 117px; text-align: start;"><span class="nodeLabel"><p>int</p></span></div></foreignObject></g><g class="label attribute-name" transform="translate(-30.3203125, -33.375)" style=""><foreignObject width="13.484375" height="24"><div xmlns="http://www.w3.org/1999/xhtml" style="display: table-cell; white-space: nowrap; line-height: 1.5; max-width: 113px; text-align: start;"><span class="nodeLabel"><p>id</p></span></div></foreignObject></g><g class="label attribute-keys" transform="translate(76.1015625, -33.375)" style=""><foreignObject width="18.140625" height="24"><div xmlns="http://www.w3.org/1999/xhtml" style="display: table-cell; white-space: nowrap; line-height: 1.5; max-width: 122px; text-align: start;"><span class="nodeLabel"><p>PK</p></span></div></foreignObject></g><g class="label attribute-comment" transform="translate(120.6953125, -33.375)" style=""><foreignObject width="0" height="0"><div xmlns="http://www.w3.org/1999/xhtml" style="display: table-cell; white-space: nowrap; line-height: 1.5; max-width: 100px; text-align: start;"><span class="nodeLabel"></span></div></foreignObject></g><g class="label attribute-type" transform="translate(-95.6953125, 9.375)" style=""><foreignObject width="40.375" height="24"><div xmlns="http://www.w3.org/1999/xhtml" style="display: table-cell; white-space: nowrap; line-height: 1.5; max-width: 136px; text-align: start;"><span class="nodeLabel"><p>string</p></span></div></foreignObject></g><g class="label attribute-name" transform="translate(-30.3203125, 9.375)" style=""><foreignObject width="31.453125" height="24"><div xmlns="http://www.w3.org/1999/xhtml" style="display: table-cell; white-space: nowrap; line-height: 1.5; max-width: 128px; text-align: start;"><span class="nodeLabel"><p>cnpj</p></span></div></foreignObject></g><g class="label attribute-keys" transform="translate(76.1015625, 9.375)" style=""><foreignObject width="19.59375" height="24"><div xmlns="http://www.w3.org/1999/xhtml" style="display: table-cell; white-space: nowrap; line-height: 1.5; max-width: 125px; text-align: start;"><span class="nodeLabel"><p>UK</p></span></div></foreignObject></g><g class="label attribute-comment" transform="translate(120.6953125, 9.375)" style=""><foreignObject width="0" height="0"><div xmlns="http://www.w3.org/1999/xhtml" style="display: table-cell; white-space: nowrap; line-height: 1.5; max-width: 100px; text-align: start;"><span class="nodeLabel"></span></div></foreignObject></g><g class="label attribute-type" transform="translate(-95.6953125, 52.125)" style=""><foreignObject width="19.65625" height="24"><div xmlns="http://www.w3.org/1999/xhtml" style="display: table-cell; white-space: nowrap; line-height: 1.5; max-width: 117px; text-align: start;"><span class="nodeLabel"><p>int</p></span></div></foreignObject></g><g class="label attribute-name" transform="translate(-30.3203125, 52.125)" style=""><foreignObject width="81.421875" height="24"><div xmlns="http://www.w3.org/1999/xhtml" style="display: table-cell; white-space: nowrap; line-height: 1.5; max-width: 175px; text-align: start;"><span class="nodeLabel"><p>parceiro_id</p></span></div></foreignObject></g><g class="label attribute-keys" transform="translate(76.1015625, 52.125)" style=""><foreignObject width="17.609375" height="24"><div xmlns="http://www.w3.org/1999/xhtml" style="display: table-cell; white-space: nowrap; line-height: 1.5; max-width: 122px; text-align: start;"><span class="nodeLabel"><p>FK</p></span></div></foreignObject></g><g class="label attribute-comment" transform="translate(120.6953125, 52.125)" style=""><foreignObject width="0" height="0"><div xmlns="http://www.w3.org/1999/xhtml" style="display: table-cell; white-space: nowrap; line-height: 1.5; max-width: 100px; text-align: start;"><span class="nodeLabel"></span></div></foreignObject></g><g class="divider"><path d="M-108.1953125 -42.75005 L-108.1953125 -42.74995 L108.1953125 -42.74995 L108.1953125 -42.75005" stroke="none" stroke-width="0" fill="#ECECFF" fill-rule="evenodd"/><path d="M-108.1953125 -42.75005 C-108.1953125 -42.75002186982462, -108.1953125 -42.749993739649234, -108.1953125 -42.74995 M-108.1953125 -42.75005 C-108.1953125 -42.75001226865739, -108.1953125 -42.749974537314785, -108.1953125 -42.74995 M-108.1953125 -42.74995 C-36.18852108470854 -42.74995, 35.81827033058292 -42.74995, 108.1953125 -42.74995 M-108.1953125 -42.74995 C-49.64947632563873 -42.74995, 8.89635984872254 -42.74995, 108.1953125 -42.74995 M108.1953125 -42.74995 C108.1953125 -42.749974030825115, 108.1953125 -42.74999806165024, 108.1953125 -42.75005 M108.1953125 -42.74995 C108.1953125 -42.749972959013114, 108.1953125 -42.74999591802623, 108.1953125 -42.75005 M108.1953125 -42.75005 C45.97498390978418 -42.75005, -16.245344680431643 -42.75005, -108.1953125 -42.75005 M108.1953125 -42.75005 C36.60698085978687 -42.75005, -34.981350780426254 -42.75005, -108.1953125 -42.75005" stroke="#9370DB" stroke-width="1.3" fill="none" stroke-dasharray="0 0"/></g><g class="divider"><path d="M-42.8203625 -42.75 L-42.8202625 -42.75 L-42.8202625 85.5 L-42.8203625 85.5" stroke="none" stroke-width="0" fill="#ECECFF" fill-rule="evenodd"/><path d="M-42.8203625 -42.75 C-42.82032676890243 -42.75, -42.82029103780487 -42.75, -42.8202625 -42.75 M-42.8203625 -42.75 C-42.82033872260665 -42.75, -42.8203149452133 -42.75, -42.8202625 -42.75 M-42.8202625 -42.75 C-42.8202625 2.9828938889842505, -42.8202625 48.7157877779685, -42.8202625 85.5 M-42.8202625 -42.75 C-42.8202625 -5.647477437007822, -42.8202625 31.455045125984356, -42.8202625 85.5 M-42.8202625 85.5 C-42.82029596708529 85.5, -42.82032943417059 85.5, -42.8203625 85.5 M-42.8202625 85.5 C-42.82029643581817 85.5, -42.820330371636345 85.5, -42.8203625 85.5 M-42.8203625 85.5 C-42.8203625 58.78803655247947, -42.8203625 32.07607310495893, -42.8203625 -42.75 M-42.8203625 85.5 C-42.8203625 44.622814768294774, -42.8203625 3.745629536589547, -42.8203625 -42.75" stroke="#9370DB" stroke-width="1.3" fill="none" stroke-dasharray="0 0"/></g><g class="divider"><path d="M63.6015125 -42.75 L63.6016125 -42.75 L63.6016125 85.5 L63.6015125 85.5" stroke="none" stroke-width="0" fill="#ECECFF" fill-rule="evenodd"/><path d="M63.6015125 -42.75 C63.6015444269639 -42.75, 63.6015763539278 -42.75, 63.6016125 -42.75 M63.6015125 -42.75 C63.60154289395739 -42.75, 63.60157328791478 -42.75, 63.6016125 -42.75 M63.6016125 -42.75 C63.6016125 -3.6714403330630816, 63.6016125 35.40711933387384, 63.6016125 85.5 M63.6016125 -42.75 C63.6016125 -4.283273048397753, 63.6016125 34.183453903204494, 63.6016125 85.5 M63.6016125 85.5 C63.60158954087624 85.5, 63.60156658175248 85.5, 63.6015125 85.5 M63.6016125 85.5 C63.60158161216452 85.5, 63.601550724329044 85.5, 63.6015125 85.5 M63.6015125 85.5 C63.6015125 34.69129320916311, 63.6015125 -16.117413581673773, 63.6015125 -42.75 M63.6015125 85.5 C63.6015125 50.873950812211554, 63.6015125 16.247901624423108, 63.6015125 -42.75" stroke="#9370DB" stroke-width="1.3" fill="none" stroke-dasharray="0 0"/></g><g class="divider"><path d="M-108.1953125 -42.75005 L-108.1953125 -42.74995 L108.1953125 -42.74995 L108.1953125 -42.75005" stroke="none" stroke-width="0" fill="#ECECFF" fill-rule="evenodd"/><path d="M-108.1953125 -42.75005 C-108.1953125 -42.750025903562616, -108.1953125 -42.75000180712522, -108.1953125 -42.74995 M-108.1953125 -42.75005 C-108.1953125 -42.750012701923545, -108.1953125 -42.749975403847095, -108.1953125 -42.74995 M-108.1953125 -42.74995 C-34.652023534945926 -42.74995, 38.89126543010815 -42.74995, 108.1953125 -42.74995 M-108.1953125 -42.74995 C-48.108575590970084 -42.74995, 11.978161318059833 -42.74995, 108.1953125 -42.74995 M108.1953125 -42.74995 C108.1953125 -42.74997098904389, 108.1953125 -42.74999197808777, 108.1953125 -42.75005 M108.1953125 -42.74995 C108.1953125 -42.749985889742746, 108.1953125 -42.75002177948549, 108.1953125 -42.75005 M108.1953125 -42.75005 C32.51634309958868 -42.75005, -43.16262630082264 -42.75005, -108.1953125 -42.75005 M108.1953125 -42.75005 C62.10804096666479 -42.75005, 16.020769433329576 -42.75005, -108.1953125 -42.75005" stroke="#9370DB" stroke-width="1.3" fill="none" stroke-dasharray="0 0"/></g></g><g class="node default" id="my-svg-entity-SCORE_PROSPECCAO-4" data-look="classic" transform="translate(456.0390625, 114.875)"><g class="outer-path" style=""><path d="M-103.7734375 -106.875 L103.7734375 -106.875 L103.7734375 106.875 L-103.7734375 106.875" stroke="none" stroke-width="0" fill="#ECECFF"/><path d="M-103.7734375 -106.875 C-59.25557201560785 -106.875, -14.737706531215693 -106.875, 103.7734375 -106.875 M-103.7734375 -106.875 C-50.92304259891192 -106.875, 1.9273523021761605 -106.875, 103.7734375 -106.875 M103.7734375 -106.875 C103.7734375 -37.386058485395125, 103.7734375 32.10288302920975, 103.7734375 106.875 M103.7734375 -106.875 C103.7734375 -23.533504511443553, 103.7734375 59.807990977112894, 103.7734375 106.875 M103.7734375 106.875 C48.10836408730605 106.875, -7.556709325387899 106.875, -103.7734375 106.875 M103.7734375 106.875 C58.78628060975974 106.875, 13.799123719519486 106.875, -103.7734375 106.875 M-103.7734375 106.875 C-103.7734375 37.9377586579013, -103.7734375 -30.999482684197403, -103.7734375 -106.875 M-103.7734375 106.875 C-103.7734375 27.107657126650636, -103.7734375 -52.65968574669873, -103.7734375 -106.875" stroke="#9370DB" stroke-width="1.3" fill="none" stroke-dasharray="0 0"/></g><g style="" class="row-rect-odd"><path d="M-103.7734375 -64.125 L103.7734375 -64.125 L103.7734375 -21.375 L-103.7734375 -21.375" stroke="none" stroke-width="0" fill="hsl(240, 100%, 100%)"/><path d="M-103.7734375 -64.125 C-32.295021673726566 -64.125, 39.18339415254687 -64.125, 103.7734375 -64.125 M-103.7734375 -64.125 C-49.95337848530681 -64.125, 3.866680529386386 -64.125, 103.7734375 -64.125 M103.7734375 -64.125 C103.7734375 -52.050264925914334, 103.7734375 -39.97552985182867, 103.7734375 -21.375 M103.7734375 -64.125 C103.7734375 -55.436939866089155, 103.7734375 -46.74887973217831, 103.7734375 -21.375 M103.7734375 -21.375 C45.83270834084022 -21.375, -12.10802081831956 -21.375, -103.7734375 -21.375 M103.7734375 -21.375 C39.42768414672136 -21.375, -24.918069206557277 -21.375, -103.7734375 -21.375 M-103.7734375 -21.375 C-103.7734375 -36.44269252425327, -103.7734375 -51.510385048506535, -103.7734375 -64.125 M-103.7734375 -21.375 C-103.7734375 -36.24224567832503, -103.7734375 -51.109491356650054, -103.7734375 -64.125" stroke="#9370DB" stroke-width="1.3" fill="none" stroke-dasharray="0 0"/></g><g style="" class="row-rect-even"><path d="M-103.7734375 -21.375 L103.7734375 -21.375 L103.7734375 21.375 L-103.7734375 21.375" stroke="none" stroke-width="0" fill="hsl(240, 100%, 97.2745098039%)"/><path d="M-103.7734375 -21.375 C-54.54836746004003 -21.375, -5.323297420080067 -21.375, 103.7734375 -21.375 M-103.7734375 -21.375 C-25.22777908816481 -21.375, 53.31787932367038 -21.375, 103.7734375 -21.375 M103.7734375 -21.375 C103.7734375 -8.56737728036007, 103.7734375 4.24024543927986, 103.7734375 21.375 M103.7734375 -21.375 C103.7734375 -11.77149921134722, 103.7734375 -2.1679984226944384, 103.7734375 21.375 M103.7734375 21.375 C46.589616628148 21.375, -10.594204243703999 21.375, -103.7734375 21.375 M103.7734375 21.375 C34.21587437952148 21.375, -35.34168874095704 21.375, -103.7734375 21.375 M-103.7734375 21.375 C-103.7734375 12.290755437944823, -103.7734375 3.206510875889645, -103.7734375 -21.375 M-103.7734375 21.375 C-103.7734375 12.804713922259426, -103.7734375 4.2344278445188515, -103.7734375 -21.375" stroke="#9370DB" stroke-width="1.3" fill="none" stroke-dasharray="0 0"/></g><g style="" class="row-rect-odd"><path d="M-103.7734375 21.375 L103.7734375 21.375 L103.7734375 64.125 L-103.7734375 64.125" stroke="none" stroke-width="0" fill="hsl(240, 100%, 100%)"/><path d="M-103.7734375 21.375 C-33.28498618396331 21.375, 37.203465132073376 21.375, 103.7734375 21.375 M-103.7734375 21.375 C-24.917907754158847 21.375, 53.937621991682306 21.375, 103.7734375 21.375 M103.7734375 21.375 C103.7734375 37.77912946414642, 103.7734375 54.183258928292844, 103.7734375 64.125 M103.7734375 21.375 C103.7734375 32.897217158041514, 103.7734375 44.41943431608303, 103.7734375 64.125 M103.7734375 64.125 C38.350655787709485 64.125, -27.07212592458103 64.125, -103.7734375 64.125 M103.7734375 64.125 C44.75402255086827 64.125, -14.265392398263458 64.125, -103.7734375 64.125 M-103.7734375 64.125 C-103.7734375 49.845653091513135, -103.7734375 35.56630618302627, -103.7734375 21.375 M-103.7734375 64.125 C-103.7734375 51.556882379678925, -103.7734375 38.98876475935785, -103.7734375 21.375" stroke="#9370DB" stroke-width="1.3" fill="none" stroke-dasharray="0 0"/></g><g style="" class="row-rect-even"><path d="M-103.7734375 64.125 L103.7734375 64.125 L103.7734375 106.875 L-103.7734375 106.875" stroke="none" stroke-width="0" fill="hsl(240, 100%, 97.2745098039%)"/><path d="M-103.7734375 64.125 C-56.219455889919054 64.125, -8.665474279838108 64.125, 103.7734375 64.125 M-103.7734375 64.125 C-61.648864199506065 64.125, -19.52429089901213 64.125, 103.7734375 64.125 M103.7734375 64.125 C103.7734375 74.73077836360476, 103.7734375 85.33655672720951, 103.7734375 106.875 M103.7734375 64.125 C103.7734375 74.84897841170667, 103.7734375 85.57295682341334, 103.7734375 106.875 M103.7734375 106.875 C33.810187361413824 106.875, -36.15306277717235 106.875, -103.7734375 106.875 M103.7734375 106.875 C42.38154457592456 106.875, -19.010348348150885 106.875, -103.7734375 106.875 M-103.7734375 106.875 C-103.7734375 89.90303969229002, -103.7734375 72.93107938458004, -103.7734375 64.125 M-103.7734375 106.875 C-103.7734375 94.13024494667333, -103.7734375 81.38548989334666, -103.7734375 64.125" stroke="#9370DB" stroke-width="1.3" fill="none" stroke-dasharray="0 0"/></g><g class="label name" transform="translate(-73.9453125, -97.5)" style=""><foreignObject width="147.890625" height="24"><div xmlns="http://www.w3.org/1999/xhtml" style="display: table-cell; white-space: nowrap; line-height: 1.5; max-width: 263px; text-align: start;"><span class="nodeLabel"><p>SCORE_PROSPECCAO</p></span></div></foreignObject></g><g class="label attribute-type" transform="translate(-91.2734375, -54.75)" style=""><foreignObject width="19.65625" height="24"><div xmlns="http://www.w3.org/1999/xhtml" style="display: table-cell; white-space: nowrap; line-height: 1.5; max-width: 117px; text-align: start;"><span class="nodeLabel"><p>int</p></span></div></foreignObject></g><g class="label attribute-name" transform="translate(-25.8984375, -54.75)" style=""><foreignObject width="13.484375" height="24"><div xmlns="http://www.w3.org/1999/xhtml" style="display: table-cell; white-space: nowrap; line-height: 1.5; max-width: 113px; text-align: start;"><span class="nodeLabel"><p>id</p></span></div></foreignObject></g><g class="label attribute-keys" transform="translate(73.1328125, -54.75)" style=""><foreignObject width="18.140625" height="24"><div xmlns="http://www.w3.org/1999/xhtml" style="display: table-cell; white-space: nowrap; line-height: 1.5; max-width: 122px; text-align: start;"><span class="nodeLabel"><p>PK</p></span></div></foreignObject></g><g class="label attribute-comment" transform="translate(116.2734375, -54.75)" style=""><foreignObject width="0" height="0"><div xmlns="http://www.w3.org/1999/xhtml" style="display: table-cell; white-space: nowrap; line-height: 1.5; max-width: 100px; text-align: start;"><span class="nodeLabel"></span></div></foreignObject></g><g class="label attribute-type" transform="translate(-91.2734375, -12)" style=""><foreignObject width="33.96875" height="24"><div xmlns="http://www.w3.org/1999/xhtml" style="display: table-cell; white-space: nowrap; line-height: 1.5; max-width: 130px; text-align: start;"><span class="nodeLabel"><p>float</p></span></div></foreignObject></g><g class="label attribute-name" transform="translate(-25.8984375, -12)" style=""><foreignObject width="37.9375" height="24"><div xmlns="http://www.w3.org/1999/xhtml" style="display: table-cell; white-space: nowrap; line-height: 1.5; max-width: 134px; text-align: start;"><span class="nodeLabel"><p>score</p></span></div></foreignObject></g><g class="label attribute-keys" transform="translate(73.1328125, -12)" style=""><foreignObject width="0" height="0"><div xmlns="http://www.w3.org/1999/xhtml" style="display: table-cell; white-space: nowrap; line-height: 1.5; max-width: 100px; text-align: start;"><span class="nodeLabel"></span></div></foreignObject></g><g class="label attribute-comment" transform="translate(116.2734375, -12)" style=""><foreignObject width="0" height="0"><div xmlns="http://www.w3.org/1999/xhtml" style="display: table-cell; white-space: nowrap; line-height: 1.5; max-width: 100px; text-align: start;"><span class="nodeLabel"></span></div></foreignObject></g><g class="label attribute-type" transform="translate(-91.2734375, 30.75)" style=""><foreignObject width="40.375" height="24"><div xmlns="http://www.w3.org/1999/xhtml" style="display: table-cell; white-space: nowrap; line-height: 1.5; max-width: 136px; text-align: start;"><span class="nodeLabel"><p>string</p></span></div></foreignObject></g><g class="label attribute-name" transform="translate(-25.8984375, 30.75)" style=""><foreignObject width="22.390625" height="24"><div xmlns="http://www.w3.org/1999/xhtml" style="display: table-cell; white-space: nowrap; line-height: 1.5; max-width: 121px; text-align: start;"><span class="nodeLabel"><p>qid</p></span></div></foreignObject></g><g class="label attribute-keys" transform="translate(73.1328125, 30.75)" style=""><foreignObject width="0" height="0"><div xmlns="http://www.w3.org/1999/xhtml" style="display: table-cell; white-space: nowrap; line-height: 1.5; max-width: 100px; text-align: start;"><span class="nodeLabel"></span></div></foreignObject></g><g class="label attribute-comment" transform="translate(116.2734375, 30.75)" style=""><foreignObject width="0" height="0"><div xmlns="http://www.w3.org/1999/xhtml" style="display: table-cell; white-space: nowrap; line-height: 1.5; max-width: 100px; text-align: start;"><span class="nodeLabel"></span></div></foreignObject></g><g class="label attribute-type" transform="translate(-91.2734375, 73.5)" style=""><foreignObject width="40.375" height="24"><div xmlns="http://www.w3.org/1999/xhtml" style="display: table-cell; white-space: nowrap; line-height: 1.5; max-width: 136px; text-align: start;"><span class="nodeLabel"><p>string</p></span></div></foreignObject></g><g class="label attribute-name" transform="translate(-25.8984375, 73.5)" style=""><foreignObject width="74.03125" height="24"><div xmlns="http://www.w3.org/1999/xhtml" style="display: table-cell; white-space: nowrap; line-height: 1.5; max-width: 167px; text-align: start;"><span class="nodeLabel"><p>prioridade</p></span></div></foreignObject></g><g class="label attribute-keys" transform="translate(73.1328125, 73.5)" style=""><foreignObject width="0" height="0"><div xmlns="http://www.w3.org/1999/xhtml" style="display: table-cell; white-space: nowrap; line-height: 1.5; max-width: 100px; text-align: start;"><span class="nodeLabel"></span></div></foreignObject></g><g class="label attribute-comment" transform="translate(116.2734375, 73.5)" style=""><foreignObject width="0" height="0"><div xmlns="http://www.w3.org/1999/xhtml" style="display: table-cell; white-space: nowrap; line-height: 1.5; max-width: 100px; text-align: start;"><span class="nodeLabel"></span></div></foreignObject></g><g class="divider"><path d="M-103.7734375 -64.12505 L-103.7734375 -64.12495 L103.7734375 -64.12495 L103.7734375 -64.12505" stroke="none" stroke-width="0" fill="#ECECFF" fill-rule="evenodd"/><path d="M-103.7734375 -64.12505 C-103.7734375 -64.1250115746781, -103.7734375 -64.12497314935618, -103.7734375 -64.12495 M-103.7734375 -64.12505 C-103.7734375 -64.12501112285673, -103.7734375 -64.12497224571347, -103.7734375 -64.12495 M-103.7734375 -64.12495 C-33.85722939425392 -64.12495, 36.05897871149216 -64.12495, 103.7734375 -64.12495 M-103.7734375 -64.12495 C-27.46053465984849 -64.12495, 48.85236818030302 -64.12495, 103.7734375 -64.12495 M103.7734375 -64.12495 C103.7734375 -64.124988255171, 103.7734375 -64.12502651034201, 103.7734375 -64.12505 M103.7734375 -64.12495 C103.7734375 -64.12497883309473, 103.7734375 -64.12500766618946, 103.7734375 -64.12505 M103.7734375 -64.12505 C61.7127324223307 -64.12505, 19.652027344661406 -64.12505, -103.7734375 -64.12505 M103.7734375 -64.12505 C24.60233472787914 -64.12505, -54.56876804424172 -64.12505, -103.7734375 -64.12505" stroke="#9370DB" stroke-width="1.3" fill="none" stroke-dasharray="0 0"/></g><g class="divider"><path d="M-38.3984875 -64.125 L-38.3983875 -64.125 L-38.3983875 106.875 L-38.3984875 106.875" stroke="none" stroke-width="0" fill="#ECECFF" fill-rule="evenodd"/><path d="M-38.3984875 -64.125 C-38.39846599637361 -64.125, -38.39844449274721 -64.125, -38.3983875 -64.125 M-38.3984875 -64.125 C-38.398451483861685 -64.125, -38.398415467723375 -64.125, -38.3983875 -64.125 M-38.3983875 -64.125 C-38.3983875 -5.3947758801296075, -38.3983875 53.335448239740785, -38.3983875 106.875 M-38.3983875 -64.125 C-38.3983875 -10.358751774940707, -38.3983875 43.407496450118586, -38.3983875 106.875 M-38.3983875 106.875 C-38.398420825022214 106.875, -38.39845415004442 106.875, -38.3984875 106.875 M-38.3983875 106.875 C-38.39842227517718 106.875, -38.398457050354374 106.875, -38.3984875 106.875 M-38.3984875 106.875 C-38.3984875 63.25367632192213, -38.3984875 19.632352643844257, -38.3984875 -64.125 M-38.3984875 106.875 C-38.3984875 61.45444142866456, -38.3984875 16.033882857329118, -38.3984875 -64.125" stroke="#9370DB" stroke-width="1.3" fill="none" stroke-dasharray="0 0"/></g><g class="divider"><path d="M60.6327625 -64.125 L60.6328625 -64.125 L60.6328625 106.875 L60.6327625 106.875" stroke="none" stroke-width="0" fill="#ECECFF" fill-rule="evenodd"/><path d="M60.6327625 -64.125 C60.632789892613935 -64.125, 60.632817285227866 -64.125, 60.6328625 -64.125 M60.6327625 -64.125 C60.632782638603594 -64.125, 60.63280277720718 -64.125, 60.6328625 -64.125 M60.6328625 -64.125 C60.6328625 -20.777985270090582, 60.6328625 22.569029459818836, 60.6328625 106.875 M60.6328625 -64.125 C60.6328625 -23.169067159080242, 60.6328625 17.786865681839515, 60.6328625 106.875 M60.6328625 106.875 C60.6328231790179 106.875, 60.63278385803579 106.875, 60.6327625 106.875 M60.6328625 106.875 C60.63283523028379 106.875, 60.632807960567575 106.875, 60.6327625 106.875 M60.6327625 106.875 C60.6327625 45.9579427806186, 60.6327625 -14.959114438762796, 60.6327625 -64.125 M60.6327625 106.875 C60.6327625 68.20339045570455, 60.6327625 29.531780911409115, 60.6327625 -64.125" stroke="#9370DB" stroke-width="1.3" fill="none" stroke-dasharray="0 0"/></g><g class="divider"><path d="M-103.7734375 -64.12505 L-103.7734375 -64.12495 L103.7734375 -64.12495 L103.7734375 -64.12505" stroke="none" stroke-width="0" fill="#ECECFF" fill-rule="evenodd"/><path d="M-103.7734375 -64.12505 C-103.7734375 -64.12502764405313, -103.7734375 -64.12500528810628, -103.7734375 -64.12495 M-103.7734375 -64.12505 C-103.7734375 -64.12502381140064, -103.7734375 -64.12499762280127, -103.7734375 -64.12495 M-103.7734375 -64.12495 C-42.72553199650549 -64.12495, 18.322373506989024 -64.12495, 103.7734375 -64.12495 M-103.7734375 -64.12495 C-32.97058895498728 -64.12495, 37.832259590025444 -64.12495, 103.7734375 -64.12495 M103.7734375 -64.12495 C103.7734375 -64.12497458056295, 103.7734375 -64.1249991611259, 103.7734375 -64.12505 M103.7734375 -64.12495 C103.7734375 -64.12498775660288, 103.7734375 -64.12502551320574, 103.7734375 -64.12505 M103.7734375 -64.12505 C31.151751657176433 -64.12505, -41.46993418564713 -64.12505, -103.7734375 -64.12505 M103.7734375 -64.12505 C42.505084303788045 -64.12505, -18.76326889242391 -64.12505, -103.7734375 -64.12505" stroke="#9370DB" stroke-width="1.3" fill="none" stroke-dasharray="0 0"/></g></g><g class="node default" id="my-svg-entity-MODELO_PROSPECCAO-5" data-look="classic" transform="translate(630.04296875, 429.625)"><rect class="basic label-container" style="" x="-100.6796875" y="-42" width="201.359375" height="84"/><g class="label" style="" transform="translate(-80.6796875, -12)"><rect/><foreignObject width="161.359375" height="24"><div xmlns="http://www.w3.org/1999/xhtml" style="display: table-cell; white-space: nowrap; line-height: 1.5; max-width: 200px; text-align: center;"><span class="nodeLabel markdown-node-label"><p>MODELO_PROSPECCAO</p></span></div></foreignObject></g></g><g class="node default" id="my-svg-entity-COLETOR-6" data-look="classic" transform="translate(645.4921875, 995)"><rect class="basic label-container" style="" x="-52.765625" y="-42" width="105.53125" height="84"/><g class="label" style="" transform="translate(-32.765625, -12)"><rect/><foreignObject width="65.53125" height="24"><div xmlns="http://www.w3.org/1999/xhtml" style="display: table-cell; white-space: nowrap; line-height: 1.5; max-width: 200px; text-align: center;"><span class="nodeLabel markdown-node-label"><p>COLETOR</p></span></div></foreignObject></g></g><g class="node default" id="my-svg-entity-PARCEIRO-7" data-look="classic" transform="translate(297.484375, 1223.5)"><rect class="basic label-container" style="" x="-54.2890625" y="-42" width="108.578125" height="84"/><g class="label" style="" transform="translate(-34.2890625, -12)"><rect/><foreignObject width="68.578125" height="24"><div xmlns="http://www.w3.org/1999/xhtml" style="display: table-cell; white-space: nowrap; line-height: 1.5; max-width: 200px; text-align: center;"><span class="nodeLabel markdown-node-label"><p>PARCEIRO</p></span></div></foreignObject></g></g></g></g></g><defs><filter id="my-svg-drop-shadow" height="130%" width="130%"><feDropShadow dx="4" dy="4" stdDeviation="0" flood-opacity="0.06" flood-color="#000000"/></filter></defs><defs><filter id="my-svg-drop-shadow-small" height="150%" width="150%"><feDropShadow dx="2" dy="2" stdDeviation="0" flood-opacity="0.06" flood-color="#000000"/></filter></defs></svg>